<svg width="20" height="20" viewBox="0 0 20 20" fill="none" xmlns="http://www.w3.org/2000/svg">
<path fill-rule="evenodd" clip-rule="evenodd" d="M5.00004 1.04166C5.34522 1.04166 5.62504 1.32149 5.62504 1.66666V1.97158C6.57176 1.87497 7.73673 1.87498 9.15774 1.875H10.8423C12.2634 1.87498 13.4283 1.87497 14.375 1.97158V1.66666C14.375 1.32149 14.6549 1.04166 15 1.04166C15.3452 1.04166 15.625 1.32149 15.625 1.66666V2.19565C16.2957 2.38573 16.8613 2.69466 17.3321 3.20363C17.9803 3.90445 18.2685 4.78993 18.4065 5.89959C18.5417 6.98692 18.5417 8.3804 18.5417 10.1584V10.6749C18.5417 12.4529 18.5417 13.8464 18.4065 14.9337C18.2685 16.0434 17.9803 16.9289 17.3321 17.6297C16.6774 18.3374 15.8394 18.6584 14.7906 18.8108C13.7756 18.9584 12.4788 18.9583 10.8423 18.9583H9.15774C7.52133 18.9583 6.22447 18.9584 5.20945 18.8108C4.16068 18.6584 3.32266 18.3374 2.66799 17.6297C2.01974 16.9289 1.73158 16.0434 1.59358 14.9337C1.45836 13.8464 1.45837 12.4529 1.45837 10.675V10.1584C1.45837 8.38038 1.45836 6.98692 1.59358 5.89959C1.73158 4.78993 2.01974 3.90445 2.66799 3.20363C3.13879 2.69466 3.70441 2.38573 4.37504 2.19565V1.66666C4.37504 1.32149 4.65486 1.04166 5.00004 1.04166ZM5.00004 3.95833C4.71435 3.95833 4.47343 3.76664 4.39887 3.50487C4.05945 3.63992 3.80173 3.8188 3.58562 4.05243C3.19207 4.47789 2.95881 5.06113 2.83555 6.04166H17.1645C17.0413 5.06113 16.808 4.47789 16.4145 4.05243C16.1983 3.8188 15.9406 3.63993 15.6012 3.50487C15.5267 3.76664 15.2857 3.95833 15 3.95833C14.6549 3.95833 14.375 3.67851 14.375 3.33333V3.22882C13.4909 3.1263 12.3481 3.125 10.7917 3.125H9.20837C7.65202 3.125 6.50921 3.1263 5.62504 3.22882V3.33333C5.62504 3.67851 5.34522 3.95833 5.00004 3.95833ZM17.2593 7.29166H2.74081C2.70883 8.08907 2.70837 9.04233 2.70837 10.2027V10.6306C2.70837 12.4625 2.70951 13.7783 2.83403 14.7795C2.95688 15.7674 3.19045 16.3537 3.58562 16.7809C3.97439 17.2012 4.49777 17.4443 5.38924 17.5738C6.30401 17.7068 7.50994 17.7083 9.20837 17.7083H10.7917C12.4901 17.7083 13.6961 17.7068 14.6108 17.5738C15.5023 17.4443 16.0257 17.2012 16.4145 16.7809C16.8096 16.3537 17.0432 15.7674 17.1661 14.7795C17.2906 13.7783 17.2917 12.4625 17.2917 10.6306V10.2027C17.2917 9.04233 17.2913 8.08907 17.2593 7.29166Z" fill="#1E1E1F"/>
</svg>
