<svg width="16" height="16" viewBox="0 0 16 16" fill="none" xmlns="http://www.w3.org/2000/svg">
<path d="M8 0.833008C11.3816 0.833008 14.167 3.44579 14.167 6.7207C14.1669 8.49148 13.2985 9.8379 12.2451 10.9902C11.7525 11.5292 11.2058 12.04 10.6768 12.5342C10.6421 12.5666 10.6077 12.5996 10.5732 12.6318C10.0059 13.1622 9.46185 13.6752 8.99023 14.2148C8.47354 14.8061 7.52299 14.7864 7.02344 14.1924C6.56376 13.6458 6.02642 13.1336 5.46094 12.6094C5.38445 12.5385 5.30696 12.4671 5.22949 12.3955C4.74147 11.9448 4.23868 11.4802 3.78223 10.9932C2.71807 9.85775 1.83308 8.5255 1.83301 6.7207C1.83301 3.44579 4.61838 0.833008 8 0.833008ZM8 4.33301C6.52724 4.33301 5.33301 5.52724 5.33301 7C5.33301 8.47276 6.52724 9.66699 8 9.66699C9.47276 9.66699 10.667 8.47276 10.667 7C10.667 5.52724 9.47276 4.33301 8 4.33301Z" fill="#1E1E1F"/>
</svg>
