<svg width="32" height="32" viewBox="0 0 32 32" fill="none" xmlns="http://www.w3.org/2000/svg">
<path d="M16.802 26.516C16.298 26.516 15.7753 26.4553 15.234 26.334C14.6927 26.222 14.1887 26.0213 13.722 25.732C13.2553 25.452 12.8727 25.0693 12.574 24.584C12.2847 24.108 12.14 23.506 12.14 22.778C12.14 22.106 12.2753 21.476 12.546 20.888C12.8167 20.3 13.1993 19.768 13.694 19.292C14.198 18.816 14.7907 18.4147 15.472 18.088C16.1533 17.7613 16.9047 17.528 17.726 17.388L18.02 18.48C17.3387 18.6013 16.7087 18.7833 16.13 19.026C15.5513 19.2687 15.0473 19.5673 14.618 19.922C14.198 20.2673 13.8713 20.664 13.638 21.112C13.4047 21.5693 13.288 22.0687 13.288 22.61C13.288 23.0487 13.3627 23.4267 13.512 23.744C13.6613 24.0613 13.8573 24.3227 14.1 24.528C14.352 24.7427 14.632 24.9107 14.94 25.032C15.248 25.1533 15.5607 25.2373 15.878 25.284C16.2047 25.34 16.5127 25.368 16.802 25.368C17.2967 25.368 17.8007 25.3213 18.314 25.228C18.8273 25.144 19.294 25.0133 19.714 24.836L20.078 25.816C19.854 25.928 19.5553 26.0353 19.182 26.138C18.818 26.25 18.426 26.3387 18.006 26.404C17.586 26.4787 17.1847 26.516 16.802 26.516ZM14.492 19.096C14.1187 19.0027 13.7827 18.8347 13.484 18.592C13.1853 18.3493 12.9473 18.06 12.77 17.724C12.602 17.388 12.518 17.0333 12.518 16.66C12.518 16.072 12.6533 15.582 12.924 15.19C13.204 14.798 13.5587 14.504 13.988 14.308C14.4267 14.112 14.8887 14.014 15.374 14.014C15.5887 14.014 15.8173 14.0327 16.06 14.07C16.3027 14.1073 16.536 14.1633 16.76 14.238L16.522 15.316C16.3353 15.2693 16.1393 15.232 15.934 15.204C15.7287 15.176 15.542 15.162 15.374 15.162C15.038 15.162 14.7393 15.2227 14.478 15.344C14.2167 15.4653 14.0113 15.6333 13.862 15.848C13.7127 16.0533 13.638 16.296 13.638 16.576C13.638 16.828 13.708 17.0567 13.848 17.262C13.9973 17.458 14.184 17.6307 14.408 17.78C14.632 17.92 14.8607 18.0273 15.094 18.102C15.3273 18.1673 15.5327 18.1953 15.71 18.186L14.492 19.096Z" fill="#44444F"/>
</svg>
